<?xml version="1.0" encoding="UTF-8" standalone="no"?>
<svg xmlns="http://www.w3.org/2000/svg" version="1.2" baseProfile="tiny-ps" viewBox="0 0 327 327">
  <title>CELPIPACE</title>
  <g transform="translate(-38.5, 8.75)">
    <path fill="#ED161D" fill-rule="evenodd" d="M113.3 262.06Q112.75 261.89 112.29 261.37Q111.83 260.85 111.82 259.97Q111.81 259.09 112.26 258.5Q112.7 257.91 112.89 257.11Q113.08 256.3 113.86 255.28Q114.63 254.26 114.95 253.32Q115.26 252.38 115.87 251.53Q116.48 250.67 117.08 249.3Q117.69 247.93 117.76 247.23Q117.83 246.52 118.25 246.12Q118.67 245.72 119.23 244.27Q119.79 242.82 120.21 242.4Q120.63 241.99 120.69 241.42Q120.74 240.85 120.61 240.59Q120.48 240.33 119.64 240.14Q118.8 239.95 117.64 239.14Q116.47 238.33 115.88 238.14Q115.3 237.96 114.97 237.63Q114.65 237.3 113.98 237.13Q113.32 236.95 112.97 236.63Q112.62 236.3 112.21 236.24Q111.8 236.19 111.38 235.76Q110.97 235.33 109.53 234.66Q108.09 233.98 107.17 233.17Q106.24 232.36 104.92 231.79Q103.59 231.23 103.14 230.78Q102.7 230.33 101.87 230.13Q101.04 229.94 100.13 229.13Q99.22 228.33 98.63 228.14Q98.05 227.96 96.63 226.88Q95.2 225.79 94.25 225.38Q93.3 224.96 91.62 223.63Q89.95 222.3 88.75 221.63Q87.55 220.96 86.65 220.16Q85.75 219.37 84.91 219.17Q84.08 218.98 83.14 218.26Q82.2 217.55 81.62 217.37Q81.04 217.19 79.25 215.76Q77.47 214.33 76.01 213.64Q74.55 212.96 73.65 212.16Q72.76 211.37 72.03 211.16Q71.3 210.96 69.5 209.63Q67.7 208.3 64.89 206.77Q62.09 205.23 60.91 204.28Q59.72 203.33 58.53 202.78Q57.34 202.23 56.52 201.51Q55.7 200.79 54.02 199.89Q52.34 198.98 51.28 198.16Q50.22 197.33 49.88 197.26Q49.54 197.19 48.5 196.26Q47.47 195.33 45.88 194.64Q44.3 193.96 43.67 193.33Q43.05 192.7 42.79 191.53Q42.52 190.37 42.67 190.07Q42.81 189.77 43.31 189.41Q43.8 189.05 44.95 188.54Q46.09 188.04 47.14 187.87Q48.19 187.69 49.03 187.24Q49.87 186.79 50.4 186.74Q50.94 186.69 51.24 186.38Q51.53 186.08 52.34 185.89Q53.16 185.71 53.66 185.37Q54.16 185.02 55.41 184.86Q56.66 184.69 58.42 184.2Q60.18 183.71 60.51 183.38Q60.84 183.05 61.79 182.86Q62.73 182.67 62.99 182.21Q63.25 181.75 62.98 180.91Q62.71 180.07 62.38 179.74Q62.05 179.41 61.87 178.24Q61.69 177.08 61.37 176.62Q61.05 176.16 60.88 175.38Q60.71 174.59 60.38 173.99Q60.05 173.38 59.87 172.29Q59.7 171.2 59.25 170.44Q58.81 169.68 58.76 169.04Q58.71 168.39 58.38 167.79Q58.04 167.18 57.88 166.39Q57.71 165.59 57.38 165.11Q57.05 164.62 56.87 163.23Q56.69 161.84 56.25 161.27Q55.81 160.69 55.26 158.64Q54.7 156.59 54.26 155.88Q53.81 155.17 53.75 154.38Q53.69 153.58 53.24 152.87Q52.79 152.16 52.25 150.24Q51.71 148.32 51.26 147.61Q50.81 146.91 50.75 146Q50.69 145.09 49.86 143.49Q49.02 141.88 48.86 140.85Q48.69 139.82 48.36 139.33Q48.02 138.84 47.86 137.71Q47.69 136.58 47.25 135.37Q46.81 134.16 46.82 133.22Q46.83 132.28 47.11 132.04Q47.38 131.8 48.56 131.53Q49.75 131.25 51.43 131.52Q53.11 131.79 53.85 132.22Q54.58 132.64 56 132.88Q57.42 133.11 59.14 133.9Q60.87 134.69 62 134.75Q63.13 134.81 64.16 135.27Q65.19 135.73 66.93 136.22Q68.66 136.71 69.42 136.76Q70.17 136.81 71.01 137.25Q71.86 137.69 72.88 137.75Q73.89 137.81 74.79 138.27Q75.69 138.73 78.06 139.27Q80.43 139.81 81.15 140.25Q81.88 140.69 83.64 140.87Q85.41 141.04 85.72 141.36Q86.03 141.67 86.94 142.07Q87.84 142.46 90.11 142.74Q92.38 143.02 92.73 143.35Q93.08 143.67 94.36 143.88Q95.65 144.08 96.43 144.44Q97.21 144.81 97.51 145.12Q97.8 145.42 98.2 145.45Q98.59 145.48 99.15 144.94Q99.7 144.41 100.25 142.38Q100.79 140.34 101.23 139.6Q101.67 138.85 101.86 137.59Q102.04 136.32 102.38 135.86Q102.71 135.41 103.25 133.01Q103.79 130.62 104.24 129.6Q104.69 128.59 104.88 126.11Q105.08 123.63 105.38 123.16Q105.69 122.7 105.88 121.99Q106.06 121.27 106.87 120.9Q107.67 120.52 108.19 120.77Q108.71 121.02 111.09 123.45Q113.46 125.88 114.72 126.85Q115.98 127.81 117.63 129.76Q119.27 131.71 121.16 133.59Q123.04 135.48 123.63 135.88Q124.21 136.27 125.36 137.47Q126.51 138.67 128.12 139.87Q129.73 141.06 131.62 142.87Q133.51 144.67 133.74 144.74Q133.98 144.81 134.25 145.25Q134.52 145.69 134.75 145.75Q134.98 145.81 136.72 147.6Q138.46 149.38 138.84 149.58Q139.21 149.77 142.23 152.85Q145.26 155.92 148.99 158.99Q152.73 162.06 157.99 166.99Q163.26 171.92 164.16 172.43Q165.07 172.94 165.77 172.93Q166.48 172.92 166.71 172.66Q166.95 172.41 166.96 172.14Q166.98 171.87 166.51 171.26Q166.05 170.66 165.87 169.85Q165.69 169.05 164.87 167.61Q164.04 166.18 163.87 165.36Q163.69 164.55 163.25 163.98Q162.81 163.42 162.76 162.67Q162.71 161.91 162.23 160.23Q161.74 158.54 161.38 157.94Q161.02 157.34 160.85 155.57Q160.67 153.79 160.24 153.11Q159.81 152.43 159.26 149.9Q158.71 147.37 158.26 146.38Q157.81 145.38 157.75 144.25Q157.69 143.12 157.25 142.28Q156.81 141.44 156.76 140.9Q156.71 140.37 156.38 139.63Q156.04 138.88 155.87 137.36Q155.69 135.84 155.25 134.85Q154.81 133.85 154.74 132.32Q154.67 130.8 154.24 129.74Q153.81 128.68 153.75 128Q153.69 127.32 153.37 126.71Q153.04 126.11 152.87 124Q152.69 121.89 152.25 121.16Q151.81 120.43 151.26 117.66Q150.71 114.89 150.27 113.92Q149.83 112.95 149.76 111.55Q149.69 110.14 149.37 109.54Q149.04 108.93 148.54 107.14Q148.04 105.36 147.87 103.73Q147.69 102.09 147.25 101.24Q146.81 100.38 146.75 99.25Q146.69 98.12 146.35 97.19Q146.02 96.27 145.86 95.19Q145.7 94.12 145.37 93.49Q145.04 92.86 144.87 90.75Q144.69 88.64 144.25 87.78Q143.81 86.92 143.26 83.9Q142.7 80.89 142.36 80.24Q142.02 79.59 141.86 77.74Q141.69 75.89 141.13 73.87Q140.56 71.85 140.57 70.32Q140.58 68.8 140.8 68.32Q141.02 67.83 141.61 67.82Q142.19 67.81 142.76 68.24Q143.33 68.67 143.88 68.74Q144.44 68.81 146.14 69.63Q147.84 70.45 148.77 70.63Q149.69 70.81 150.38 71.26Q151.07 71.71 153 72.37Q154.92 73.02 155.36 73.36Q155.8 73.69 156.61 73.87Q157.43 74.04 157.74 74.34Q158.06 74.64 159.25 74.88Q160.44 75.11 161.49 75.87Q162.55 76.63 164.13 76.85Q165.7 77.06 166.03 77.38Q166.35 77.7 168.03 78.25Q169.7 78.81 170.13 79.24Q170.55 79.67 171.36 79.86Q172.16 80.05 173.13 80.63Q174.09 81.21 174.77 81.09Q175.45 80.96 176.04 80.22Q176.63 79.49 176.84 78.42Q177.05 77.34 177.87 75.89Q178.69 74.44 178.75 73.88Q178.81 73.31 179.26 72.73Q179.7 72.16 180.25 70.61Q180.79 69.07 181.24 68.51Q181.69 67.95 181.87 67.14Q182.04 66.32 182.37 66.01Q182.7 65.7 183.08 64.94Q183.46 64.18 183.63 63.36Q183.81 62.55 184.24 62.11Q184.67 61.67 184.74 61.12Q184.81 60.56 185.64 59.12Q186.48 57.67 186.64 56.87Q186.81 56.06 187.26 55.48Q187.7 54.91 188.12 53.61Q188.54 52.32 189 51.76Q189.45 51.2 189.63 50.5Q189.81 49.8 190.25 49.22Q190.7 48.65 191.37 46.97Q192.04 45.3 192.36 45Q192.67 44.7 192.86 43.89Q193.05 43.09 193.87 41.77Q194.69 40.44 194.75 39.88Q194.81 39.31 195.24 38.88Q195.67 38.45 195.86 37.64Q196.05 36.84 197.75 33.63Q199.45 30.41 199.63 29.6Q199.81 28.8 200.24 28.36Q200.67 27.92 200.74 27.37Q200.81 26.81 201.25 26.23Q201.7 25.65 202.19 24.42Q202.69 23.19 202.75 22.63Q202.81 22.06 203.18 21.68Q203.55 21.3 204.11 21.17Q204.66 21.05 205.41 21.68Q206.17 22.3 206.74 24.13Q207.31 25.95 207.63 26.25Q207.95 26.55 208.13 27.25Q208.31 27.95 208.74 28.49Q209.17 29.03 209.61 30.23Q210.04 31.43 210.5 31.99Q210.95 32.55 211.64 34.14Q212.33 35.72 213.14 36.89Q213.95 38.05 214.13 38.75Q214.31 39.45 214.76 40.15Q215.21 40.84 215.26 41.27Q215.31 41.7 215.74 42.14Q216.17 42.58 216.24 43.13Q216.31 43.69 216.63 44Q216.95 44.3 217.63 45.88Q218.31 47.46 218.63 47.76Q218.95 48.05 219.13 48.99Q219.31 49.93 219.81 50.95Q220.31 51.96 220.62 52.26Q220.92 52.55 221.11 53.37Q221.29 54.18 221.73 54.74Q222.17 55.3 222.36 56Q222.55 56.7 223.26 57.76Q223.98 58.83 224.14 59.63Q224.31 60.44 224.63 60.75Q224.95 61.05 225.63 62.87Q226.3 64.68 226.74 65.24Q227.19 65.81 227.37 66.63Q227.55 67.45 228.25 68.62Q228.96 69.8 229.13 70.38Q229.31 70.96 229.63 71.26Q229.95 71.55 230.63 73.24Q231.3 74.93 231.61 75.24Q231.92 75.55 232.12 76.62Q232.31 77.69 232.63 78Q232.95 78.3 233.61 79.99Q234.27 81.67 234.96 81.67Q235.65 81.67 237.23 80.86Q238.82 80.04 239.64 79.87Q240.45 79.69 240.88 79.26Q241.3 78.83 242.92 78.29Q244.54 77.74 245.32 77.27Q246.09 76.79 246.52 76.74Q246.95 76.69 247.53 76.25Q248.1 75.8 249.78 75.25Q251.45 74.69 252.14 74.25Q252.82 73.81 253.5 73.75Q254.18 73.69 255.76 72.87Q257.34 72.04 258.39 71.87Q259.44 71.69 259.75 71.37Q260.05 71.05 261.96 70.39Q263.86 69.73 264.46 69.28Q265.06 68.83 267 68.71Q268.94 68.59 269.51 69.02Q270.09 69.46 270.14 70.79Q270.19 72.12 269.78 72.7Q269.37 73.29 269.17 74.58Q268.98 75.88 268.63 76.49Q268.29 77.09 268.13 77.89Q267.96 78.68 267.63 79.15Q267.31 79.62 267.25 80.75Q267.19 81.88 266.75 82.74Q266.31 83.59 266.13 85.11Q265.96 86.63 265.13 88.75Q264.31 90.87 264.25 92Q264.19 93.13 263.74 94Q263.29 94.87 262.63 97.9Q261.96 100.93 261.64 101.29Q261.33 101.65 261.14 103.01Q260.95 104.37 260.62 104.86Q260.29 105.34 260.13 106.14Q259.96 106.93 259.65 107.36Q259.33 107.79 259.15 109.34Q258.98 110.88 258.65 111.23Q258.33 111.58 257.76 113.51Q257.19 115.44 256.78 115.99Q256.37 116.55 256.17 117.96Q255.98 119.38 255.63 119.85Q255.29 120.32 254.63 122.37Q253.98 124.42 253.65 124.77Q253.33 125.13 253.14 126.28Q252.96 127.43 252.63 127.77Q252.3 128.1 251.8 129.36Q251.29 130.62 251.24 131.15Q251.19 131.69 250.76 132.27Q250.33 132.85 250.14 134Q249.96 135.16 249.59 136.04Q249.21 136.93 248.77 137.49Q248.33 138.05 248.26 138.5Q248.19 138.95 247.37 140.25Q246.55 141.55 246.25 142.38Q245.96 143.2 245.66 143.49Q245.36 143.79 245.14 144.75Q244.92 145.72 244.61 146.01Q244.3 146.3 243.63 147.88Q242.96 149.45 242.63 149.75Q242.3 150.05 241.74 151.51Q241.19 152.96 240.87 153.26Q240.55 153.55 240.37 154.13Q240.19 154.71 239.37 155.76Q238.55 156.8 237.87 158.26Q237.19 159.71 236.26 161.01Q235.33 162.3 235.14 163Q234.96 163.7 233.75 165.25Q232.55 166.8 232.25 167.63Q231.96 168.45 231.13 169.38Q230.3 170.3 229.26 172Q228.21 173.7 227.27 174.74Q226.33 175.78 226.26 176.12Q226.19 176.46 225.75 176.88Q225.3 177.3 224.75 178.38Q224.19 179.46 223.17 180.72Q222.16 181.97 221.75 182.25Q221.34 182.53 220.65 183.62Q219.96 184.7 219.14 185.48Q218.33 186.26 217.26 187.74Q216.19 189.23 213.13 192.37Q210.08 195.51 208.01 198.12Q205.94 200.73 204.73 201.76Q203.52 202.79 203.13 203.38Q202.73 203.96 199.47 207.22Q196.21 210.48 192.87 213.27Q189.52 216.06 188.51 217.12Q187.49 218.17 187.26 218.24Q187.02 218.31 185.13 220.24Q183.24 222.17 182.72 222.56Q182.2 222.95 181.62 223.13Q181.04 223.31 180.65 223.72Q180.27 224.13 179.9 224.22Q179.54 224.31 178.92 224.8Q178.3 225.29 177.03 226.59Q175.76 227.89 175.28 228.1Q174.8 228.3 174.39 228.73Q173.99 229.17 171.76 230.74Q169.52 232.31 168.27 233.72Q167.02 235.13 165.78 235.72Q164.54 236.31 163.53 237.22Q162.52 238.13 161.18 238.82Q159.84 239.52 158.27 240.73Q156.7 241.95 156 242.13Q155.3 242.31 154.38 243.24Q153.47 244.17 152.13 244.74Q150.79 245.31 149.65 246.22Q148.51 247.13 147.78 247.34Q147.05 247.54 146.13 248.25Q145.2 248.96 143.75 249.63Q142.3 250.29 141.25 251.12Q140.2 251.95 138.38 252.62Q136.57 253.29 136.16 253.71Q135.75 254.13 135.15 254.22Q134.56 254.31 133.38 255.13Q132.2 255.96 131.38 256.13Q130.56 256.31 130.14 256.72Q129.71 257.13 128.78 257.22Q127.84 257.31 126.38 258.13Q124.91 258.95 123.74 259.13Q122.58 259.31 122.15 259.74Q121.72 260.17 120.82 260.56Q119.92 260.94 118.52 261.12Q117.12 261.29 116.38 261.74Q115.64 262.19 114.75 262.21Q113.85 262.23 113.3 262.06ZM72.77 285.81Q72.5 285.42 72.38 285.07Q72.25 284.72 72.39 284.5Q72.52 284.29 73.68 283.66Q74.84 283.04 79.25 282.37Q83.66 281.69 83.97 281.38Q84.28 281.08 84.72 280.94Q85.15 280.81 86.68 280.74Q88.2 280.67 90.16 279.86Q92.12 279.05 93.25 278.88Q94.38 278.7 95.24 278.26Q96.09 277.81 96.95 277.76Q97.81 277.71 99.61 277.21Q101.41 276.7 101.75 276.38Q102.09 276.05 103.14 275.87Q104.18 275.69 104.49 275.37Q104.8 275.05 105.71 274.66Q106.62 274.27 108.27 273.98Q109.93 273.69 110.27 273.37Q110.6 273.05 111.27 272.88Q111.93 272.7 113.25 272Q114.57 271.29 116.25 270.99Q117.93 270.69 118.51 270.25Q119.08 269.81 119.88 269.75Q120.67 269.69 124.26 267.87Q127.84 266.05 128.77 265.87Q129.69 265.69 129.99 265.38Q130.28 265.08 130.7 264.93Q131.12 264.79 131.65 264.74Q132.19 264.69 133.27 263.87Q134.34 263.05 135.39 262.87Q136.43 262.69 136.87 262.26Q137.3 261.83 138.99 261.27Q140.68 260.71 140.99 260.38Q141.3 260.05 142 259.87Q142.7 259.69 143.88 258.87Q145.05 258.05 145.88 257.75Q146.7 257.45 147.86 256.64Q149.03 255.83 149.37 255.76Q149.71 255.69 150.01 255.37Q150.3 255.05 150.88 254.87Q151.46 254.69 151.88 254.26Q152.3 253.83 153 253.64Q153.7 253.46 154.49 252.77Q155.28 252.08 156.24 251.88Q157.19 251.69 158.37 250.87Q159.55 250.04 160.13 249.87Q160.71 249.69 162.75 248.26Q164.78 246.83 165.12 246.76Q165.46 246.69 165.76 246.37Q166.05 246.05 167.25 245.38Q168.45 244.7 169.36 243.89Q170.26 243.08 171.71 242.28Q173.16 241.48 173.47 241.16Q173.78 240.83 174.12 240.76Q174.46 240.69 178.25 237.76Q182.03 234.83 182.37 234.76Q182.71 234.69 183.12 234.26Q183.53 233.83 184.62 233.27Q185.7 232.7 187.73 230.89Q189.76 229.08 190.36 228.88Q190.96 228.69 192.21 227.83Q193.45 226.96 194.48 225.89Q195.51 224.83 196.14 224.33Q196.78 223.83 197.12 223.76Q197.46 223.69 199.47 222.07Q201.48 220.44 202.72 219.15Q203.96 217.87 204.33 217.67Q204.69 217.48 204.86 217.14Q205.02 216.81 207.75 214.75Q210.48 212.69 213.97 209.28Q217.46 205.87 217.84 205.67Q218.21 205.48 218.93 204.74Q219.64 204.01 219.96 203.41Q220.27 202.81 221 202.38Q221.73 201.94 223.85 199.95Q225.98 197.96 227.63 196Q229.27 194.04 230.75 192.75Q232.23 191.46 232.63 190.88Q233.02 190.29 236.95 186.41Q240.88 182.54 241.95 181.16Q243.02 179.79 245.33 177.54Q247.63 175.29 249.15 173.39Q250.67 171.49 251.24 170.51Q251.81 169.52 254.22 167.02Q256.63 164.52 256.72 164.15Q256.81 163.79 257.25 163.37Q257.7 162.95 257.87 162.5Q258.05 162.05 260.36 159.77Q262.67 157.49 263.73 156.02Q264.79 154.55 265.98 153.27Q267.17 151.99 267.48 151.39Q267.79 150.8 268.86 149.64Q269.92 148.49 270.86 147.02Q271.8 145.55 272.23 145.13Q272.67 144.72 272.74 144.38Q272.81 144.04 273.25 143.62Q273.7 143.2 273.87 142.75Q274.05 142.3 277.36 138.39Q280.67 134.49 282.86 131.39Q285.04 128.3 285.98 127.39Q286.92 126.49 287.8 125.23Q288.67 123.97 288.74 123.63Q288.81 123.29 290.54 121.56Q292.28 119.83 292.86 119.66Q293.44 119.5 294.06 119.64Q294.68 119.79 295.3 120.56Q295.92 121.33 296.12 123.22Q296.31 125.12 296.63 125.63Q296.95 126.13 297.13 127.4Q297.31 128.67 297.63 129.28Q297.96 129.89 298.13 131.4Q298.31 132.92 298.75 133.63Q299.19 134.34 299.25 135.25Q299.31 136.16 300.13 137.77Q300.95 139.38 301.16 140.56Q301.37 141.74 301.83 142.6Q302.3 143.45 302.85 143.84Q303.41 144.23 304.66 143.97Q305.91 143.71 306.88 143.26Q307.84 142.81 309.11 142.64Q310.38 142.48 310.84 142.14Q311.3 141.81 312.46 141.42Q313.62 141.04 314.9 140.87Q316.18 140.69 316.88 140.25Q317.58 139.81 320.67 139.27Q323.77 138.73 324.32 138.39Q324.87 138.04 326.39 137.87Q327.91 137.69 328.63 137.25Q329.34 136.81 330.2 136.76Q331.06 136.71 332.02 136.36Q332.98 136.02 334.06 135.86Q335.13 135.7 335.63 135.38Q336.13 135.05 337.4 134.87Q338.67 134.69 339.13 134.37Q339.59 134.05 340.64 133.87Q341.68 133.69 342.52 133.25Q343.36 132.81 344.38 132.75Q345.39 132.69 346.11 132.25Q346.83 131.81 349.57 131.27Q352.31 130.73 353.09 130.27Q353.87 129.81 355 129.81Q356.13 129.81 356.53 130.18Q356.92 130.55 357.09 131.14Q357.25 131.72 357.11 132.43Q356.96 133.13 356.64 133.61Q356.33 134.08 356.14 135Q355.96 135.93 355.63 136.38Q355.31 136.83 355.25 137.63Q355.19 138.42 354.74 139.12Q354.29 139.82 353.75 141.86Q353.21 143.91 352.77 144.6Q352.33 145.29 352.25 146.38Q352.17 147.46 351.73 148.15Q351.29 148.84 350.63 151.01Q349.98 153.17 349.64 153.53Q349.3 153.88 349.12 155.03Q348.94 156.18 348.62 156.64Q348.3 157.1 348.13 157.77Q347.95 158.43 347.64 158.78Q347.33 159.13 347.14 160.28Q346.96 161.43 346.63 161.82Q346.3 162.21 346.12 163.45Q345.94 164.69 345.13 166.41Q344.33 168.13 344.26 168.9Q344.19 169.67 343.74 170.51Q343.29 171.34 342.75 173.5Q342.21 175.66 341.77 176.38Q341.33 177.1 340.92 179.47Q340.51 181.84 340.79 182.24Q341.06 182.63 342.22 182.72Q343.38 182.81 344.34 183.28Q345.29 183.74 347.86 184.39Q350.43 185.04 350.89 185.36Q351.35 185.67 352.62 185.86Q353.88 186.04 355.98 186.87Q358.08 187.69 358.88 187.75Q359.67 187.81 360.42 188.43Q361.17 189.05 361.07 189.75Q360.96 190.45 360.35 191.06Q359.74 191.67 359.13 191.99Q358.52 192.31 358.36 192.64Q358.19 192.98 357.2 193.84Q356.2 194.71 355 195.25Q353.8 195.8 347.25 200.38Q340.7 204.95 340.12 205.13Q339.54 205.31 338.5 206.24Q337.47 207.17 336.25 207.74Q335.04 208.31 332.87 210.13Q330.7 211.95 330.13 212.12Q329.57 212.29 328.51 213.12Q327.45 213.95 325.99 214.63Q324.54 215.31 322.87 216.75Q321.2 218.2 319.99 218.75Q318.79 219.31 317.39 220.62Q315.99 221.92 315.27 222.12Q314.55 222.31 310.76 225.24Q306.97 228.17 306.64 228.23Q306.32 228.29 305.89 228.73Q305.47 229.17 304.26 229.73Q303.05 230.3 301.4 231.71Q299.76 233.13 298.9 233.46Q298.05 233.79 296.89 234.86Q295.74 235.92 295.14 236.12Q294.54 236.31 294.14 236.74Q293.74 237.17 292.77 237.73Q291.8 238.3 291.38 238.73Q290.97 239.17 290.63 239.24Q290.29 239.31 289.37 240.13Q288.45 240.95 287.87 241.13Q287.29 241.31 284.51 243.62Q281.74 245.92 278.59 248.05Q275.45 250.17 274.29 250.56Q273.13 250.94 272.14 250.96Q271.14 250.98 270.05 250.62Q268.97 250.27 265.04 249.73Q261.12 249.19 260 248.76Q258.88 248.33 253.84 248.17Q248.8 248.01 240.83 248.16Q232.85 248.31 231.68 248.75Q230.52 249.19 227.61 249.36Q224.7 249.52 223.63 249.87Q222.56 250.21 221.7 250.26Q220.84 250.31 219.61 250.75Q218.37 251.19 217.13 251.25Q215.88 251.31 215.54 251.63Q215.2 251.95 214.53 252.21Q213.86 252.46 211.11 252.76Q208.37 253.06 207.29 253.61Q206.2 254.17 204.75 254.25Q203.3 254.33 201.49 255.14Q199.68 255.94 198.4 256.12Q197.12 256.29 196.27 256.74Q195.42 257.19 193.3 257.6Q191.19 258.02 190.3 258.49Q189.41 258.96 187.88 259.13Q186.36 259.31 185.88 259.76Q185.41 260.2 184.52 260.58Q183.63 260.95 182.5 261.13Q181.37 261.3 180.77 261.74Q180.17 262.19 179.38 262.25Q178.58 262.31 177.27 263.1Q175.96 263.88 174.27 264.1Q172.57 264.31 172.11 264.63Q171.66 264.95 170.76 265.12Q169.87 265.29 168.59 265.79Q167.32 266.3 166.99 266.63Q166.66 266.95 165.49 267.13Q164.33 267.31 163.99 267.63Q163.66 267.95 162.76 268.12Q161.87 268.29 161.24 268.63Q160.61 268.96 159.1 269.13Q157.58 269.31 156.99 269.75Q156.41 270.19 155.5 270.25Q154.59 270.31 153.38 271.13Q152.16 271.95 150.76 272.13Q149.36 272.31 148.77 272.75Q148.19 273.19 146.39 273.62Q144.59 274.04 143.74 274.51Q142.88 274.98 141.61 275.14Q140.34 275.31 139.87 275.75Q139.4 276.2 138.4 276.57Q137.41 276.94 135.81 277.12Q134.21 277.3 133.43 277.74Q132.66 278.19 131.75 278.25Q130.84 278.31 128.35 279.13Q125.86 279.96 124.37 280.14Q122.88 280.33 122.15 280.76Q121.42 281.19 120.67 281.24Q119.91 281.29 118.24 281.79Q116.57 282.29 115.88 282.73Q115.18 283.17 113.13 283.25Q111.07 283.33 110.59 283.64Q110.12 283.95 106.64 284.61Q103.16 285.27 102.68 285.6Q102.2 285.92 101.64 286.06Q101.09 286.19 99.5 286.25Q97.91 286.31 96.52 286.75Q95.12 287.19 93.94 287.24Q92.76 287.29 91.39 287.63Q90.02 287.96 88.64 288.08Q87.27 288.19 81.86 288.08Q76.45 287.98 75.93 287.63Q75.41 287.29 74.98 287.24Q74.55 287.19 74.13 286.76Q73.72 286.33 73.38 286.26Q73.04 286.19 72.77 285.81Z"/>
  </g>
</svg>
