<svg xmlns="http://www.w3.org/2000/svg" width="1254" height="1254" viewBox="0 0 1254 1254" role="img" aria-label="CELPIPACE favicon">
  <rect width="1254" height="1254" rx="270" fill="#FFFFFF"/>
  <path d="M902 257A395 395 0 1 0 902 997" fill="none" stroke="#0F1F3D" stroke-width="112" stroke-linecap="round"/>
  <g transform="translate(430 627) scale(13.4)">
    <path d="M0,-15 L2.5,-7 L9,-12 L6,-3 L14,-5 L10,2 L18,6 L8,6 L10,16 L0,13 L-10,16 L-8,6 L-18,6 L-10,2 L-14,-5 L-6,-3 L-9,-12 L-2.5,-7 Z" fill="#D91B1B"/>
  </g>
  <path d="M604 458Q735 627 604 796" fill="none" stroke="#0F1F3D" stroke-width="42" stroke-linecap="round"/>
  <path d="M704 360Q920 627 704 894" fill="none" stroke="#0F1F3D" stroke-width="42" stroke-linecap="round"/>
</svg>
