<svg xmlns="http://www.w3.org/2000/svg" width="2048" height="682" viewBox="0 0 2048 682" role="img" aria-label="CELPIPACE logo">
  <rect width="2048" height="682" fill="none"/>
  <g transform="translate(120 105)">
    <path d="M310 92A178 178 0 1 0 310 380" fill="none" stroke="#0F1F3D" stroke-width="58" stroke-linecap="round"/>
    <g transform="translate(158 236) scale(4.85)">
      <path d="M0,-15 L2.5,-7 L9,-12 L6,-3 L14,-5 L10,2 L18,6 L8,6 L10,16 L0,13 L-10,16 L-8,6 L-18,6 L-10,2 L-14,-5 L-6,-3 L-9,-12 L-2.5,-7 Z" fill="#D91B1B"/>
    </g>
    <path d="M235 175Q292 236 235 297" fill="none" stroke="#0F1F3D" stroke-width="18" stroke-linecap="round"/>
    <path d="M275 137Q365 236 275 335" fill="none" stroke="#0F1F3D" stroke-width="18" stroke-linecap="round"/>
    <path d="M318 104Q432 236 318 368" fill="none" stroke="#0F1F3D" stroke-width="18" stroke-linecap="round"/>
  </g>
  <text x="560" y="398" font-family="Inter, Arial, Helvetica, sans-serif" font-size="214" font-weight="900" letter-spacing="-8">
    <tspan fill="#0F1F3D">CELPIP</tspan><tspan fill="#D91B1B">ACE</tspan>
  </text>
</svg>
