<svg xmlns="http://www.w3.org/2000/svg" viewBox="0 0 782 182" fill-rule="evenodd"><path fill="#ED161D" d="M54.4 156.91Q53.25 156.89 53.15 156.11Q53.06 155.32 53.47 154.91Q53.88 154.5 53.97 153.9Q54.06 153.31 54.47 152.91Q54.88 152.51 54.97 152.03Q55.06 151.55 55.88 150.35Q56.7 149.16 56.88 148.23Q57.06 147.31 57.38 147Q57.7 146.7 57.88 146Q58.06 145.3 58.51 144.85Q58.95 144.41 58.96 144.11Q58.96 143.82 58.75 143.59Q58.54 143.37 57.79 143.15Q57.05 142.94 55.63 142Q54.2 141.06 53.75 141Q53.3 140.94 52.88 140.51Q52.47 140.08 51.88 139.89Q51.3 139.71 50.37 139Q49.45 138.3 48.87 138.12Q48.29 137.94 47.89 137.53Q47.5 137.12 46.88 137.02Q46.27 136.92 45.88 136.5Q45.49 136.08 44.42 135.53Q43.34 134.98 42.91 134.53Q42.47 134.08 41.88 133.89Q41.3 133.71 40.37 132.88Q39.45 132.05 38.39 131.52Q37.34 130.98 37.02 130.64Q36.7 130.3 36.12 130.12Q35.54 129.94 35.24 129.62Q34.95 129.3 34.37 129.12Q33.79 128.94 32.62 127.99Q31.45 127.05 30.39 126.52Q29.34 125.98 29.02 125.64Q28.7 125.3 28.12 125.12Q27.54 124.94 26.5 124.13Q25.47 123.33 24.88 123.14Q24.3 122.96 23.88 122.52Q23.47 122.08 22.88 121.89Q22.3 121.71 21.5 121Q20.7 120.3 20.13 120.13Q19.57 119.96 18.51 119.13Q17.45 118.3 16.87 118.12Q16.29 117.94 15.87 117.5Q15.45 117.05 14.39 116.52Q13.34 115.98 12.91 115.53Q12.47 115.08 12.13 115Q11.78 114.92 10.91 114.3Q10.05 113.68 9.93 113.08Q9.81 112.48 9.93 112.26Q10.05 112.04 11.06 111.55Q12.07 111.06 13.13 110.88Q14.18 110.71 15.89 109.88Q17.59 109.06 18.97 108.89Q20.34 108.73 20.72 108.4Q21.1 108.08 21.77 108.01Q22.43 107.94 22.71 107.5Q23 107.06 22.97 106.8Q22.94 106.55 22.51 106.09Q22.08 105.63 22.01 104.85Q21.94 104.08 21.51 103.37Q21.08 102.65 20.89 101.5Q20.71 100.34 20.41 100.04Q20.12 99.74 19.91 98.65Q19.71 97.57 19.38 97.13Q19.06 96.68 18.88 95.51Q18.71 94.34 18.39 94Q18.08 93.65 17.89 92.61Q17.71 91.57 17.41 91.28Q17.12 90.99 16.91 89.9Q16.71 88.82 16.39 88.47Q16.08 88.13 16.01 87.35Q15.94 86.58 15.51 85.98Q15.08 85.38 15.01 84.6Q14.94 83.83 14.51 83.24Q14.08 82.65 14.01 81.98Q13.94 81.32 13.5 80.37Q13.06 79.42 13 78.63Q12.94 77.83 12.61 77.08Q12.27 76.33 12.84 76.04Q13.41 75.75 14.76 75.92Q16.1 76.08 16.97 76.51Q17.83 76.94 18.63 77Q19.42 77.06 19.9 77.38Q20.38 77.7 21.74 77.89Q23.1 78.08 23.85 78.51Q24.59 78.94 25.47 79.01Q26.35 79.08 27.22 79.51Q28.09 79.94 29 80Q29.91 80.06 30.39 80.38Q30.88 80.7 32.03 80.88Q33.18 81.06 33.66 81.38Q34.13 81.7 35.4 81.88Q36.67 82.06 37.15 82.38Q37.63 82.7 39.14 82.88Q40.64 83.06 41.11 83.38Q41.57 83.71 42.51 83.88Q43.44 84.06 43.76 84.37Q44.08 84.67 44.57 84.7Q45.05 84.73 45.49 84.22Q45.92 83.71 45.99 82.66Q46.06 81.61 46.5 81.01Q46.94 80.42 47 79.63Q47.06 78.83 47.38 78.37Q47.7 77.91 47.89 76.65Q48.08 75.4 48.4 74.89Q48.73 74.38 48.9 72.34Q49.08 70.3 49.53 69.71Q49.98 69.12 50.33 69.08Q50.68 69.04 51.98 70.49Q53.27 71.94 54.61 72.98Q55.94 74.02 56.11 74.37Q56.27 74.71 58.66 77.09Q61.04 79.48 63.88 81.77Q66.73 84.06 66.89 84.39Q67.06 84.73 67.39 84.89Q67.73 85.06 67.89 85.39Q68.06 85.73 68.39 85.89Q68.73 86.06 68.89 86.39Q69.06 86.73 69.51 87Q69.96 87.27 71.73 89.1Q73.51 90.92 76.62 93.49Q79.73 96.06 82.24 98.49Q84.76 100.92 85.43 101.42Q86.1 101.92 86.79 101.92Q87.48 101.92 87.73 101.5Q87.98 101.08 87.51 100.51Q87.05 99.95 86.87 99.25Q86.69 98.55 86.37 98.21Q86.05 97.87 85.88 97.09Q85.71 96.32 85.39 95.97Q85.08 95.63 84.89 94.36Q84.71 93.09 84.38 92.63Q84.06 92.16 83.88 90.75Q83.71 89.34 83.38 88.88Q83.06 88.41 83 87.5Q82.94 86.59 82.5 85.74Q82.06 84.89 82 83.88Q81.94 82.86 81.5 82.01Q81.06 81.16 80.88 79.75Q80.71 78.34 80.4 77.9Q80.08 77.45 80.01 76.05Q79.94 74.64 79.5 73.64Q79.06 72.63 78.89 71.02Q78.73 69.41 78.42 69.06Q78.12 68.71 77.91 67.17Q77.71 65.62 77.38 65.14Q77.06 64.66 76.88 63.02Q76.71 61.39 76.41 61.04Q76.12 60.69 75.92 59.05Q75.73 57.41 75.39 56.89Q75.06 56.38 74.89 54.77Q74.73 53.16 74.39 52.64Q74.06 52.12 73.89 50.39Q73.73 48.66 73.39 48.03Q73.06 47.41 72.88 45.89Q72.71 44.37 72.38 43.87Q72.06 43.37 71.89 41.64Q71.73 39.91 71.39 39.39Q71.06 38.87 71.06 37.63Q71.06 36.38 71.37 36.2Q71.67 36.02 71.98 36.35Q72.28 36.67 73.12 36.87Q73.95 37.06 74.27 37.38Q74.59 37.7 75.64 37.88Q76.68 38.06 77.24 38.5Q77.81 38.94 78.35 38.99Q78.88 39.04 79.6 39.49Q80.31 39.94 80.88 40Q81.44 40.06 81.77 40.38Q82.09 40.7 83.02 40.88Q83.94 41.06 84.29 41.38Q84.63 41.7 85.66 41.88Q86.69 42.06 87.15 42.38Q87.6 42.7 88.27 42.87Q88.93 43.05 89.26 43.38Q89.59 43.7 90.4 43.88Q91.2 44.06 91.54 44.38Q91.88 44.7 92.29 44.7Q92.7 44.69 93.2 44.05Q93.7 43.41 93.87 42.63Q94.04 41.84 94.49 41.15Q94.94 40.45 95 40Q95.06 39.55 95.5 38.99Q95.94 38.44 96 37.88Q96.06 37.31 96.38 37Q96.7 36.7 96.88 36Q97.06 35.3 97.5 34.74Q97.94 34.19 98 33.63Q98.06 33.06 98.38 32.75Q98.7 32.45 98.88 31.75Q99.06 31.05 99.38 30.73Q99.7 30.41 99.88 29.6Q100.06 28.8 100.5 28.24Q100.94 27.69 101 27.13Q101.06 26.56 101.38 26.25Q101.7 25.95 101.88 25.25Q102.06 24.55 102.38 24.25Q102.7 23.95 102.88 23.25Q103.06 22.55 103.5 21.99Q103.94 21.44 104 20.88Q104.06 20.31 104.47 19.9Q104.88 19.5 104.97 18.9Q105.06 18.31 105.47 17.9Q105.88 17.5 105.97 16.9Q106.06 16.31 106.35 16.02Q106.64 15.74 106.85 15.03Q107.05 14.32 107.49 13.76Q107.94 13.19 108 12.63Q108.06 12.06 108.38 11.75Q108.7 11.45 108.88 10.75Q109.06 10.05 109.38 9.73Q109.7 9.41 109.88 8.36Q110.06 7.32 110.49 7.18Q110.93 7.04 111.41 7.39Q111.88 7.75 112.09 8.71Q112.29 9.68 112.59 9.96Q112.88 10.24 113.08 10.96Q113.27 11.67 113.6 12Q113.92 12.33 113.99 12.88Q114.06 13.44 114.49 13.87Q114.92 14.3 115.11 15Q115.29 15.7 116.11 16.88Q116.92 18.05 117.1 18.74Q117.27 19.42 117.6 19.74Q117.92 20.05 118.1 20.74Q118.27 21.42 118.58 21.71Q118.88 21.99 119.08 22.71Q119.27 23.42 119.6 23.75Q119.92 24.08 119.99 24.63Q120.06 25.19 120.49 25.76Q120.92 26.33 120.99 26.88Q121.06 27.44 121.47 27.85Q121.88 28.25 121.97 28.85Q122.06 29.44 122.49 29.88Q122.92 30.33 122.99 30.88Q123.06 31.44 123.49 32.01Q123.92 32.58 123.99 33.13Q124.06 33.69 124.38 34Q124.7 34.3 124.88 35Q125.06 35.7 126.01 37.39Q126.96 39.07 127.13 39.64Q127.29 40.2 127.51 40.39Q127.73 40.58 127.89 41.38Q128.06 42.19 128.47 42.72Q128.88 43.25 128.97 43.85Q129.06 44.44 129.27 44.66Q129.49 44.88 129.95 44.92Q130.41 44.96 130.99 44.52Q131.58 44.08 132.5 43.89Q133.43 43.71 133.71 43.41Q134 43.12 134.84 42.92Q135.67 42.73 135.97 42.42Q136.26 42.11 136.97 41.9Q137.68 41.7 137.97 41.41Q138.26 41.12 138.97 41.03Q139.68 40.94 140.21 40.53Q140.75 40.12 141.71 39.91Q142.68 39.71 143.03 39.39Q143.38 39.08 144.15 39.01Q144.92 38.94 145.5 38.51Q146.08 38.08 146.89 37.89Q147.7 37.71 148.03 37.39Q148.35 37.08 149.5 36.82Q150.66 36.56 151.06 36.69Q151.46 36.81 151.69 37.07Q151.92 37.33 151.94 37.86Q151.96 38.38 151.63 38.86Q151.3 39.34 151.12 40.39Q150.94 41.43 150.5 42.26Q150.06 43.09 150 44Q149.94 44.91 149.62 45.39Q149.3 45.88 149.12 47.27Q148.94 48.66 148.62 49.14Q148.3 49.63 148.12 50.9Q147.94 52.17 147.5 53.01Q147.06 53.86 147 54.88Q146.94 55.89 146.62 56.37Q146.3 56.84 146.12 57.89Q145.94 58.93 145.5 59.76Q145.06 60.59 145 61.5Q144.94 62.41 144.62 62.88Q144.3 63.34 144.01 64.51Q143.73 65.67 143.39 66.13Q143.06 66.58 143 67.38Q142.94 68.17 142.61 68.62Q142.27 69.08 142.11 69.88Q141.94 70.69 141.62 71.13Q141.29 71.57 141.12 72.51Q140.94 73.44 140.62 73.75Q140.3 74.05 140.12 74.99Q139.94 75.93 139.62 76.26Q139.3 76.59 139.12 77.64Q138.94 78.68 138.62 78.99Q138.3 79.3 138.12 80Q137.94 80.7 137.51 81.14Q137.08 81.58 137.01 82.13Q136.94 82.69 136.51 83.13Q136.08 83.58 136.01 84.13Q135.94 84.69 135.62 85Q135.3 85.3 135.12 86Q134.94 86.7 134.51 87.14Q134.08 87.58 134.01 88.13Q133.94 88.69 133.53 89.09Q133.12 89.49 133.03 89.97Q132.94 90.45 132.51 90.87Q132.08 91.28 131.53 92.47Q130.98 93.66 130.64 93.98Q130.3 94.3 130.12 94.88Q129.94 95.46 129.12 96.51Q128.3 97.55 128.12 98.13Q127.94 98.71 127.51 99.11Q127.08 99.51 126.52 100.48Q125.95 101.45 125.02 102.49Q124.08 103.53 124.01 103.87Q123.94 104.21 120.94 107.97Q117.94 111.73 116.51 113.12Q115.08 114.51 113.4 116.61Q111.73 118.71 111.13 119.13Q110.52 119.56 110.13 120.13Q109.73 120.71 107.63 122.8Q105.54 124.88 103.03 126.97Q100.52 129.06 99.12 130.48Q97.72 131.91 97.21 132.3Q96.7 132.7 96.12 132.88Q95.54 133.06 94.01 134.49Q92.49 135.92 91.51 136.49Q90.52 137.06 89.29 138.17Q88.06 139.27 87.88 139.61Q87.7 139.95 86.62 140.51Q85.54 141.06 85.12 141.5Q84.7 141.95 83.62 142.5Q82.54 143.06 82.14 143.49Q81.74 143.92 80.64 144.49Q79.54 145.06 79.15 145.47Q78.76 145.88 78.28 145.97Q77.8 146.06 77.38 146.49Q76.97 146.92 75.75 147.49Q74.54 148.06 74.12 148.49Q73.7 148.92 73 149.11Q72.3 149.29 71.38 150Q70.45 150.71 69.51 151Q68.57 151.3 68.27 151.61Q67.97 151.92 67.38 152.11Q66.8 152.29 66.48 152.61Q66.17 152.92 65.38 153.1Q64.58 153.27 64.24 153.6Q63.9 153.92 63.23 153.99Q62.57 154.06 62.11 154.49Q61.65 154.92 60.61 155.11Q59.57 155.29 59.21 155.61Q58.85 155.92 57.61 156.1Q56.37 156.27 55.96 156.6Q55.55 156.92 54.4 156.91ZM29.28 172.25Q28.25 171.53 28.4 171.29Q28.55 171.04 29.46 170.67Q30.38 170.3 32.76 170Q35.13 169.71 35.64 169.39Q36.15 169.08 37.64 168.89Q39.13 168.71 39.61 168.38Q40.08 168.06 40.88 168Q41.67 167.94 42.42 167.51Q43.17 167.08 44.66 166.89Q46.16 166.71 46.45 166.41Q46.75 166.12 47.71 165.91Q48.68 165.71 49.03 165.39Q49.38 165.08 50.53 164.89Q51.68 164.71 51.96 164.41Q52.25 164.12 52.85 164.03Q53.44 163.94 53.99 163.53Q54.54 163.12 55.47 163.03Q56.41 162.94 57 162.51Q57.6 162.08 58.27 162.01Q58.93 161.94 59.5 161.51Q60.08 161.08 60.89 160.89Q61.7 160.71 62 160.39Q62.3 160.08 64.37 159.39Q66.43 158.71 66.74 158.39Q67.05 158.08 67.75 157.89Q68.45 157.71 68.75 157.39Q69.05 157.08 69.87 156.89Q70.68 156.71 70.99 156.39Q71.3 156.08 71.99 155.9Q72.67 155.73 72.99 155.39Q73.3 155.05 74.75 154.38Q76.2 153.71 76.5 153.39Q76.8 153.08 77.25 153.01Q77.7 152.94 78 152.62Q78.3 152.3 78.88 152.12Q79.46 151.94 79.86 151.53Q80.25 151.12 80.85 151.03Q81.44 150.94 81.86 150.51Q82.28 150.08 82.87 149.89Q83.45 149.71 84.5 148.89Q85.55 148.08 86 148.01Q86.45 147.94 88.38 146.5Q90.3 145.05 91.38 144.5Q92.46 143.94 94.86 142.01Q97.26 140.08 98.48 139.39Q99.7 138.7 100.5 137.88Q101.3 137.05 102.38 136.5Q103.46 135.94 104.61 134.88Q105.76 133.83 107.12 132.88Q108.48 131.94 109.88 130.52Q111.28 129.09 112.37 128.4Q113.45 127.7 115.36 125.89Q117.26 124.08 117.49 124.01Q117.73 123.94 117.89 123.61Q118.06 123.27 119.01 122.5Q119.96 121.73 120.51 121Q121.06 120.27 121.51 120Q121.96 119.73 124.42 117.26Q126.88 114.79 127.08 114.42Q127.27 114.06 127.88 113.63Q128.48 113.21 128.77 112.74Q129.06 112.27 129.5 112Q129.94 111.73 132.43 109.11Q134.92 106.49 135.1 106.14Q135.27 105.79 137.08 104.04Q138.88 102.29 139.52 101.26Q140.16 100.24 142.04 98.24Q143.92 96.24 144.48 95.27Q145.04 94.3 145.38 94.12Q145.73 93.94 146.82 92.72Q147.92 91.49 150.42 88.37Q152.92 85.24 153.48 84.27Q154.05 83.3 156.98 79.77Q159.92 76.24 160.48 75.27Q161.05 74.3 162 73.37Q162.95 72.45 163.5 71.37Q164.06 70.29 165.15 69.33Q166.24 68.38 166.7 68.45Q167.16 68.52 167.52 68.91Q167.88 69.31 167.97 70.47Q168.06 71.63 168.5 72.74Q168.94 73.84 169.12 75.25Q169.29 76.66 169.61 77.02Q169.92 77.38 169.99 78.15Q170.06 78.92 170.5 79.68Q170.95 80.45 171.15 81.57Q171.36 82.69 171.94 83.33Q172.53 83.98 172.99 83.96Q173.44 83.94 174.26 83.5Q175.08 83.06 176.23 82.89Q177.38 82.73 177.86 82.39Q178.34 82.06 179.61 81.89Q180.88 81.73 181.36 81.39Q181.84 81.06 183.36 80.88Q184.88 80.71 185.49 80.38Q186.09 80.06 187.39 79.88Q188.68 79.71 189.14 79.38Q189.61 79.06 190.63 79Q191.64 78.94 192.49 78.5Q193.34 78.06 194.25 78Q195.16 77.94 195.99 77.5Q196.83 77.06 198.01 76.88Q199.18 76.71 199.66 76.39Q200.15 76.08 201.53 75.89Q202.91 75.71 203.39 75.38Q203.87 75.04 204.69 74.9Q205.5 74.75 205.84 75.02Q206.17 75.28 206.07 76.09Q205.96 76.91 205.5 77.9Q205.04 78.89 204.99 79.54Q204.94 80.18 204.5 80.76Q204.06 81.33 204 82.13Q203.94 82.92 203.61 83.42Q203.27 83.91 203.11 84.92Q202.94 85.93 202.62 86.39Q202.3 86.84 202.12 87.77Q201.94 88.69 201.5 89.26Q201.06 89.83 200.99 90.65Q200.92 91.47 200.49 92.02Q200.06 92.57 200 93.25Q199.94 93.93 199.62 94.39Q199.3 94.84 199.11 95.98Q198.92 97.13 198.48 97.88Q198.04 98.64 197.99 99.29Q197.94 99.93 197.61 100.4Q197.27 100.87 197.12 101.86Q196.96 102.86 196.62 103.39Q196.27 103.91 195.89 105.58Q195.5 107.25 195.93 107.6Q196.36 107.94 197.38 108Q198.39 108.06 198.89 108.38Q199.38 108.7 200.53 108.88Q201.68 109.06 202.51 109.5Q203.33 109.94 204.1 110.01Q204.88 110.08 205.61 110.51Q206.34 110.94 207.28 111.01Q208.22 111.08 208.46 111.36Q208.7 111.63 208.7 112.04Q208.69 112.45 208.11 112.76Q207.54 113.06 206.63 113.99Q205.72 114.92 205.13 115.11Q204.55 115.29 203.51 116.11Q202.47 116.92 202.13 116.99Q201.79 117.06 200.74 118Q199.7 118.95 197.14 120.48Q194.59 122.02 194.16 122.47Q193.72 122.92 193.13 123.11Q192.55 123.29 191.14 124.48Q189.74 125.67 189.14 125.87Q188.54 126.06 188.12 126.5Q187.7 126.95 186.62 127.5Q185.54 128.06 184.38 128.99Q183.22 129.92 182.88 129.99Q182.54 130.06 181.5 130.99Q180.47 131.92 179.88 132.11Q179.3 132.29 177 134.12Q174.7 135.95 173.62 136.5Q172.54 137.06 171.52 137.97Q170.51 138.88 170.03 138.97Q169.55 139.06 169.02 139.62Q168.49 140.17 167.52 140.73Q166.55 141.3 164.88 142.61Q163.22 143.92 162.88 143.99Q162.54 144.06 158.9 146.95Q155.27 149.84 153.47 149.89Q151.68 149.94 151.11 149.62Q150.54 149.3 148.7 149.12Q146.87 148.94 145.93 148.62Q144.99 148.29 143.21 148.16Q141.42 148.04 136.48 148.05Q131.54 148.06 130.08 148.18Q128.62 148.31 127.6 148.63Q126.57 148.94 124.88 149Q123.18 149.06 122.01 149.51Q120.84 149.96 119.33 150.13Q117.82 150.31 117.29 150.62Q116.76 150.92 115.45 150.99Q114.14 151.06 113.59 151.18Q113.05 151.31 112.6 151.63Q112.16 151.94 110.75 152.12Q109.34 152.29 108.96 152.61Q108.58 152.92 107.56 153Q106.54 153.08 105.93 153.5Q105.33 153.92 103.84 154.11Q102.34 154.29 102.04 154.59Q101.73 154.88 100.52 155.09Q99.32 155.29 98.98 155.61Q98.65 155.92 97.61 156.11Q96.57 156.29 96.25 156.61Q95.92 156.92 95 157.11Q94.07 157.29 93.62 157.62Q93.17 157.94 92.38 158Q91.58 158.06 90.74 158.49Q89.9 158.92 88.99 159.1Q88.08 159.27 87.73 159.6Q87.38 159.92 86.6 159.99Q85.83 160.06 85.27 160.47Q84.7 160.88 83.29 161.08Q81.87 161.27 81.4 161.61Q80.94 161.94 80.01 162.12Q79.07 162.29 78.73 162.61Q78.4 162.92 77.36 163.11Q76.32 163.29 75.97 163.61Q75.63 163.92 74.47 164.11Q73.32 164.29 73.03 164.59Q72.74 164.88 71.65 165.09Q70.57 165.29 70.21 165.61Q69.85 165.92 68.47 166.11Q67.09 166.29 66.63 166.62Q66.16 166.94 65.25 167Q64.34 167.06 63.37 167.5Q62.39 167.94 61.38 168Q60.36 168.06 59.62 168.49Q58.88 168.92 57.61 169.11Q56.34 169.29 55.73 169.62Q55.12 169.94 53.88 170Q52.63 170.06 51.71 170.49Q50.78 170.92 49.58 170.99Q48.38 171.06 47.25 171.5Q46.12 171.94 44.88 172Q43.63 172.06 42.26 172.5Q40.9 172.94 37.21 173.1Q33.53 173.25 31.92 173.11Q30.3 172.96 29.28 172.25ZM693.27 134.95Q690.53 135 687.11 134.96Q683.7 134.92 682.88 134.6Q682.05 134.27 680.3 134.1Q678.54 133.92 678.1 133.61Q677.66 133.3 676.88 133.13Q676.09 132.96 675.63 132.63Q675.16 132.3 674.23 132Q673.3 131.7 672.38 131Q671.45 130.3 670.87 130.12Q670.29 129.94 669.88 129.51Q669.47 129.08 668.88 128.89Q668.3 128.71 667.8 128.34Q667.3 127.96 664.19 124.85Q661.08 121.74 660.78 121.04Q660.48 120.34 659.8 119.55Q659.12 118.75 659.03 118.15Q658.94 117.56 658.51 117.13Q658.08 116.7 657.9 116.01Q657.73 115.33 657.4 115Q657.08 114.67 656.89 113.75Q656.71 112.82 656.41 112.52Q656.12 112.21 655.91 110.78Q655.71 109.34 655.4 108.85Q655.08 108.35 655.07 103.9Q655.06 99.45 655.5 97.91Q655.94 96.37 656.01 95.17Q656.08 93.97 656.51 93.2Q656.94 92.43 657 91.75Q657.06 91.07 657.51 90.49Q657.96 89.91 658.01 89.48Q658.06 89.05 658.38 88.75Q658.7 88.45 658.88 87.87Q659.06 87.29 659.49 86.88Q659.92 86.47 660.48 85.38Q661.05 84.3 663.65 81.69Q666.26 79.08 668.28 77.69Q670.3 76.3 670.88 76.12Q671.46 75.94 671.86 75.53Q672.25 75.12 672.85 75.03Q673.44 74.94 674.01 74.51Q674.58 74.08 675.5 73.89Q676.43 73.71 676.86 73.4Q677.29 73.08 678.46 73.01Q679.63 72.94 680.81 72.5Q682 72.06 685.48 71.9Q688.97 71.75 692.5 71.9Q696.03 72.06 696.58 72.38Q697.13 72.7 698.64 72.88Q700.14 73.06 700.64 73.38Q701.13 73.7 702.16 73.88Q703.19 74.06 703.75 74.49Q704.3 74.92 704.75 74.99Q705.2 75.06 705.5 75.38Q705.8 75.7 706.38 75.88Q706.96 76.06 707.26 76.38Q707.55 76.7 708.13 76.88Q708.71 77.06 709.72 77.97Q710.73 78.88 711.1 78.97Q711.46 79.06 713.2 80.67Q714.94 82.29 715.09 82.76Q715.24 83.23 714.98 84.09Q714.73 84.94 711.5 87.5Q708.27 90.06 708.11 90.39Q707.94 90.73 707.18 91.34Q706.42 91.95 705.85 91.94Q705.27 91.92 704.87 91.5Q704.47 91.08 703.76 90.77Q703.05 90.46 701.76 89.27Q700.47 88.08 699.14 87.52Q697.82 86.96 697.25 86.51Q696.68 86.06 696 86Q695.32 85.94 695.12 85.73Q694.92 85.52 694.16 85.29Q693.39 85.06 690.9 84.78Q688.41 84.5 685.5 84.9Q682.59 85.29 682.29 85.59Q681.99 85.88 681.28 85.97Q680.57 86.06 679.88 86.51Q679.18 86.96 678.61 87.13Q678.05 87.29 676.79 88.17Q675.52 89.06 674.15 90.42Q672.77 91.79 672.36 92.63Q671.94 93.46 671.51 93.88Q671.08 94.3 671.01 94.75Q670.94 95.2 670.5 95.91Q670.06 96.62 670 97.75Q669.94 98.88 669.63 99.36Q669.31 99.83 669.16 100.9Q669.01 101.97 669.15 103.75Q669.29 105.54 669.62 106.2Q669.94 106.86 670 107.88Q670.06 108.89 670.18 109.3Q670.31 109.71 670.62 110.02Q670.92 110.33 671.11 111.14Q671.29 111.95 671.61 112.25Q671.92 112.55 671.99 113Q672.06 113.45 672.67 114.2Q673.27 114.94 673.61 115.11Q673.94 115.27 674.11 115.62Q674.27 115.96 675.79 117.33Q677.3 118.7 677.88 118.88Q678.46 119.06 678.91 119.49Q679.35 119.92 680.04 120Q680.73 120.08 681.13 120.48Q681.52 120.88 682.32 120.98Q683.13 121.08 683.62 121.39Q684.12 121.71 685.27 121.84Q686.42 121.98 689.53 121.95Q692.63 121.92 693.29 121.8Q693.94 121.69 694.39 121.38Q694.84 121.06 696.14 120.88Q697.43 120.71 697.77 120.38Q698.1 120.05 699.41 119.5Q700.71 118.94 701.12 118.51Q701.53 118.08 702.12 117.89Q702.7 117.71 703.32 117.22Q703.94 116.73 704.12 116.38Q704.3 116.04 704.83 115.79Q705.37 115.54 705.84 115.53Q706.3 115.52 708.52 117.29Q710.73 119.06 710.89 119.39Q711.06 119.73 711.51 120Q711.96 120.27 713.42 121.77Q714.88 123.26 714.9 123.99Q714.92 124.73 713.34 126.29Q711.76 127.84 711.15 128.07Q710.55 128.29 709.62 129.12Q708.7 129.95 708.13 130.12Q707.57 130.29 707.27 130.61Q706.97 130.92 705.38 131.61Q703.8 132.29 703.61 132.51Q703.42 132.73 702.25 133.01Q701.07 133.29 700.7 133.61Q700.33 133.92 699.34 133.99Q698.36 134.06 697.18 134.47Q696 134.89 693.27 134.95ZM654.77 133.94Q654.31 134.25 647.28 134.07Q640.25 133.89 640.1 133.22Q639.94 132.56 639.51 132.12Q639.08 131.67 639.01 131.12Q638.94 130.56 638.5 129.88Q638.06 129.2 638.01 128.77Q637.96 128.34 637.51 127.62Q637.05 126.9 636.88 126.23Q636.7 125.57 636.39 125.25Q636.08 124.92 635.9 124.13Q635.73 123.33 635.4 123Q635.08 122.67 634.89 121.86Q634.71 121.05 634.11 120.58Q633.5 120.11 631.41 120.07Q629.32 120.02 618.04 120.07Q606.75 120.11 606.4 120.32Q606.06 120.54 606.01 120.86Q605.96 121.18 605.54 121.72Q605.12 122.26 605.03 122.97Q604.94 123.68 604.51 124.14Q604.08 124.6 604.01 125.27Q603.94 125.93 603.62 126.24Q603.3 126.55 603.12 127.25Q602.94 127.95 602.11 129.39Q601.27 130.83 601.11 131.63Q600.94 132.44 600.4 133.11Q599.86 133.78 592.79 134.02Q585.72 134.25 585.42 134.01Q585.12 133.76 585.09 133.28Q585.06 132.8 585.38 132.5Q585.7 132.2 586.37 130.62Q587.04 129.05 587.49 128.5Q587.94 127.95 588 127.5Q588.06 127.05 588.38 126.72Q588.7 126.4 588.87 125.73Q589.05 125.07 589.38 124.74Q589.7 124.41 589.88 123.6Q590.06 122.8 590.49 122.23Q590.92 121.67 590.99 121.12Q591.06 120.56 591.5 120Q591.94 119.44 592 118.88Q592.06 118.31 592.49 117.87Q592.92 117.42 592.99 116.87Q593.06 116.31 593.5 115.75Q593.94 115.19 593.99 114.65Q594.04 114.12 594.37 113.76Q594.7 113.41 594.88 112.6Q595.06 111.8 595.38 111.5Q595.7 111.2 595.88 110.5Q596.06 109.8 596.38 109.5Q596.7 109.2 596.88 108.5Q597.06 107.8 597.51 107.1Q597.96 106.41 598.01 105.98Q598.06 105.55 598.5 104.99Q598.94 104.44 599 103.88Q599.06 103.31 599.38 102.98Q599.7 102.66 599.88 101.85Q600.06 101.05 600.38 100.75Q600.7 100.45 600.88 99.75Q601.06 99.05 601.38 98.73Q601.7 98.41 601.88 97.6Q602.06 96.8 602.38 96.48Q602.7 96.16 602.88 95.23Q603.06 94.31 603.47 93.9Q603.88 93.5 603.97 92.9Q604.06 92.31 604.49 91.87Q604.92 91.42 604.99 90.87Q605.06 90.31 605.38 90Q605.7 89.7 605.88 89Q606.06 88.3 606.38 87.98Q606.7 87.66 606.88 86.85Q607.06 86.05 607.38 85.72Q607.7 85.4 607.87 84.73Q608.05 84.07 608.38 83.74Q608.7 83.41 608.88 82.6Q609.06 81.8 609.49 81.23Q609.92 80.67 609.99 80.12Q610.06 79.56 610.38 79.25Q610.7 78.95 610.88 78.13Q611.06 77.31 611.38 77Q611.7 76.7 611.88 76Q612.06 75.3 612.37 75.01Q612.67 74.72 612.98 73.88Q613.3 73.04 613.99 72.9Q614.69 72.76 616.33 72.88Q617.97 73 621.17 72.89Q624.37 72.77 625.73 72.91Q627.09 73.04 627.38 73.27Q627.67 73.51 627.98 74.47Q628.29 75.43 628.61 75.75Q628.92 76.08 629.1 76.88Q629.27 77.67 629.6 77.99Q629.92 78.3 630.1 78.99Q630.27 79.67 630.58 79.96Q630.88 80.24 631.08 80.96Q631.27 81.67 631.6 82.01Q631.92 82.35 631.99 83.02Q632.06 83.68 632.49 84.25Q632.92 84.83 633.1 85.73Q633.27 86.63 633.6 86.98Q633.92 87.33 633.99 87.88Q634.06 88.44 634.49 88.87Q634.92 89.3 635.1 89.99Q635.27 90.67 635.6 91.01Q635.92 91.35 635.99 92.02Q636.06 92.68 636.49 93.24Q636.92 93.8 637.11 94.5Q637.29 95.2 637.61 95.5Q637.92 95.8 638.11 96.62Q638.29 97.43 638.61 97.74Q638.92 98.05 639.11 98.87Q639.29 99.68 639.61 100Q639.92 100.33 639.99 100.88Q640.06 101.44 640.47 101.85Q640.88 102.25 640.97 102.85Q641.06 103.44 641.47 103.85Q641.88 104.25 641.97 104.85Q642.06 105.44 642.49 105.88Q642.92 106.33 642.99 106.88Q643.06 107.44 643.49 108.01Q643.92 108.58 643.99 109.13Q644.06 109.69 644.49 110.25Q644.92 110.8 645.11 111.62Q645.29 112.43 645.61 112.74Q645.92 113.05 646.11 113.87Q646.29 114.68 646.61 115Q646.92 115.33 646.99 115.88Q647.06 116.44 647.47 116.85Q647.88 117.25 647.97 117.85Q648.06 118.44 648.47 118.85Q648.88 119.25 648.97 119.85Q649.06 120.44 649.49 120.87Q649.92 121.3 650.1 121.99Q650.27 122.67 650.6 123Q650.92 123.33 651.1 124.13Q651.27 124.92 651.6 125.25Q651.92 125.58 651.99 126.13Q652.06 126.69 652.49 127.12Q652.92 127.55 653.11 128.37Q653.29 129.18 653.61 129.49Q653.92 129.8 653.99 130.25Q654.06 130.7 654.5 131.38Q654.94 132.05 655.08 132.84Q655.23 133.63 654.77 133.94ZM772.99 133.66Q772.78 134 772.53 134.13Q772.28 134.25 771.76 134.13Q771.23 134 770.36 134.13Q769.48 134.25 764.13 134.13Q758.77 134 752.07 134.13Q745.38 134.25 737.63 134.13Q729.89 134.01 727.35 134.13Q724.8 134.25 724.38 134.05Q723.97 133.86 723.86 132.98Q723.75 132.11 723.88 130.84Q724 129.56 723.89 105.76Q723.77 81.96 723.82 77.61Q723.86 73.25 724 73.11Q724.14 72.97 724.85 72.86Q725.56 72.75 727.17 72.88Q728.78 73 730.79 72.88Q732.8 72.75 735.01 72.88Q737.22 73 738.12 72.88Q739.02 72.76 742.07 72.88Q745.13 73 747.66 72.88Q750.2 72.75 751.65 72.88Q753.09 73 757.43 72.88Q761.77 72.75 765.94 72.88Q770.11 73 771.14 72.88Q772.17 72.75 772.63 73.1Q773.09 73.45 773.17 77.5Q773.25 81.56 773.13 82.2Q773 82.84 773.12 83.59Q773.25 84.34 773.11 84.64Q772.98 84.94 772.71 85.07Q772.44 85.19 754.97 85.28Q737.5 85.36 737.38 87.23Q737.25 89.11 737.28 92.55Q737.31 95.98 737.44 96.36Q737.58 96.73 751.66 96.92Q765.75 97.11 765.87 99.07Q766 101.02 765.87 104.96Q765.75 108.89 751.75 109Q737.75 109.11 737.58 109.36Q737.41 109.6 737.36 110.46Q737.3 111.31 737.33 116.28Q737.36 121.25 737.84 121.58Q738.32 121.92 739.02 121.96Q739.73 122 756.07 121.9Q772.42 121.81 772.67 122.13Q772.92 122.45 773.07 124.02Q773.21 125.59 773.2 129.46Q773.19 133.33 772.99 133.66ZM615.37 108.92Q619.05 109 623.76 108.96Q628.48 108.92 628.7 108.82Q628.92 108.73 628.96 108.54Q629 108.34 628.86 107.71Q628.73 107.08 628.4 106.76Q628.08 106.45 627.51 104.87Q626.94 103.3 626.49 102.6Q626.04 101.91 625.88 101.11Q625.71 100.32 625.39 100Q625.08 99.67 625.01 99.12Q624.94 98.56 624.51 98.1Q624.08 97.65 624.01 96.98Q623.94 96.32 623.51 95.62Q623.08 94.92 623.01 94.37Q622.94 93.81 622.53 93.28Q622.12 92.75 622.03 92.15Q621.94 91.56 621.5 90.87Q621.06 90.18 621 89.5Q620.94 88.82 620.67 88.58Q620.39 88.33 619.85 89.09Q619.3 89.84 619.12 90.77Q618.94 91.69 618.53 92.1Q618.12 92.51 618.03 93.22Q617.94 93.93 617.5 94.49Q617.06 95.05 617 95.5Q616.94 95.95 616.49 96.66Q616.04 97.37 615.99 97.9Q615.94 98.44 615.5 99Q615.06 99.56 615 100.13Q614.94 100.69 614.62 101Q614.3 101.3 613.63 103Q612.96 104.7 612.63 105Q612.3 105.3 612.12 106.12Q611.94 106.94 611.47 107.51Q611 108.08 611.03 108.27Q611.06 108.46 611.37 108.65Q611.69 108.84 615.37 108.92Z"></path><path fill="#1A3F8F" d="M267.54 134.95Q265.08 135 262 134.96Q258.93 134.92 258.24 134.6Q257.55 134.27 255.67 134.1Q253.79 133.92 253.33 133.61Q252.87 133.3 251.84 133.12Q250.81 132.94 250.13 132.5Q249.44 132.06 248.88 132Q248.31 131.94 247.98 131.62Q247.65 131.3 246.98 131.13Q246.32 130.95 246.01 130.63Q245.7 130.3 245 130.12Q244.3 129.94 243.89 129.51Q243.49 129.08 241.88 128.01Q240.27 126.94 240.11 126.61Q239.94 126.27 239.49 126Q239.04 125.73 237.55 124.18Q236.05 122.64 235.5 121.59Q234.94 120.54 234.51 120.13Q234.08 119.72 233.89 119.13Q233.71 118.55 233.38 118.22Q233.05 117.9 232.88 117.23Q232.7 116.57 232.38 116.23Q232.05 115.9 231.89 115.27Q231.73 114.64 231.41 114.14Q231.08 113.65 230.89 112.5Q230.71 111.34 230.4 110.9Q230.08 110.46 229.9 108.55Q229.71 106.64 229.38 105.7Q229.06 104.75 229.06 102.38Q229.06 100 229.38 99.18Q229.71 98.36 229.88 96.73Q230.06 95.09 230.38 94.64Q230.71 94.18 230.88 93.16Q231.04 92.14 231.37 91.65Q231.7 91.16 231.88 90.23Q232.06 89.31 232.47 88.91Q232.88 88.51 232.97 88.03Q233.06 87.55 233.49 87.13Q233.92 86.72 233.99 86.38Q234.06 86.04 235.05 84.67Q236.04 83.3 236.38 83.12Q236.73 82.94 237.99 81.51Q239.26 80.08 242.14 78.08Q245.03 76.08 246.73 75.39Q248.43 74.7 248.77 74.39Q249.1 74.08 250.14 73.89Q251.18 73.71 251.66 73.38Q252.14 73.05 253.5 72.88Q254.86 72.7 255.51 72.38Q256.15 72.06 261.63 71.93Q267.11 71.81 269.33 71.93Q271.55 72.06 272.57 72.5Q273.58 72.94 274.38 73Q275.17 73.06 275.63 73.38Q276.09 73.7 277.16 73.89Q278.23 74.08 278.5 74.38Q278.78 74.67 279.37 74.86Q279.95 75.04 280.28 75.37Q280.6 75.7 281.27 75.87Q281.93 76.05 282.36 76.48Q282.78 76.92 283.87 77.48Q284.95 78.05 286.33 79.16Q287.71 80.27 288.69 81.27Q289.67 82.26 289.83 82.62Q289.99 82.98 289.96 83.34Q289.94 83.7 289.33 84.3Q288.72 84.91 287.01 86.1Q285.3 87.29 283.52 88.98Q281.74 90.67 281.07 90.96Q280.4 91.24 279.6 91.1Q278.8 90.96 277.16 89.54Q275.52 88.12 274.28 87.53Q273.04 86.94 272.75 86.63Q272.47 86.33 271.39 86.13Q270.32 85.94 270.01 85.63Q269.7 85.33 268.93 85.04Q268.17 84.75 267.13 84.87Q266.1 84.98 265.12 84.64Q264.13 84.31 263.35 84.28Q262.57 84.25 260.91 84.61Q259.24 84.96 258.06 85.01Q256.88 85.06 256.28 85.49Q255.67 85.92 255.12 85.99Q254.56 86.06 254.12 86.49Q253.67 86.92 253.12 86.99Q252.56 87.06 252.13 87.5Q251.7 87.95 250.62 88.5Q249.54 89.06 248.43 90.28Q247.33 91.51 247.13 92.11Q246.94 92.71 246.51 93.12Q246.08 93.53 245.89 94.12Q245.71 94.7 245.49 94.89Q245.27 95.08 244.67 96.98Q244.06 98.88 244.04 102.06Q244.02 105.25 244.17 106.47Q244.31 107.69 244.62 108.02Q244.92 108.35 245.1 109.37Q245.27 110.38 245.6 110.72Q245.92 111.05 246.11 111.75Q246.29 112.45 247.11 113.37Q247.92 114.28 248.11 114.87Q248.29 115.45 250.9 117.55Q253.51 119.64 254.21 119.85Q254.9 120.05 255.62 120.5Q256.34 120.94 257.25 121Q258.16 121.06 258.75 121.39Q259.34 121.73 263.61 121.82Q267.88 121.92 268.54 121.8Q269.19 121.69 269.63 121.38Q270.07 121.06 271.13 120.88Q272.18 120.71 272.61 120.38Q273.05 120.06 273.73 119.89Q274.42 119.73 274.73 119.4Q275.03 119.08 275.62 118.89Q276.2 118.71 276.48 118.39Q276.76 118.08 277.23 117.89Q277.7 117.71 278.53 116.9Q279.36 116.09 280.43 115.67Q281.5 115.25 284.49 117.66Q287.48 120.06 288.71 121.17Q289.94 122.27 290.32 122.81Q290.7 123.34 290.7 123.65Q290.69 123.96 289.74 124.92Q288.79 125.88 287.17 126.96Q285.55 128.04 284.53 128.96Q283.51 129.88 283.03 129.97Q282.55 130.06 282.12 130.49Q281.7 130.92 281.01 131.1Q280.33 131.27 280.03 131.58Q279.74 131.89 279.03 132.1Q278.32 132.3 278.03 132.59Q277.74 132.88 276.54 133.09Q275.34 133.29 274.95 133.61Q274.55 133.92 272.95 134.11Q271.34 134.29 270.67 134.59Q270 134.89 267.54 134.95ZM353.41 133.86Q352.88 134 352.15 133.88Q351.42 133.75 350.34 133.88Q349.25 134 347.47 133.88Q345.69 133.75 343.74 133.87Q341.79 134 339.24 133.87Q336.7 133.75 335.61 133.87Q334.52 134 332.68 133.87Q330.84 133.75 329.27 133.87Q327.7 134 325.08 133.87Q322.45 133.75 315.59 133.87Q308.73 134 307.25 133.75Q305.77 133.5 304.56 133.74Q303.36 133.99 302.23 133.87Q301.11 133.75 301.18 129.26Q301.25 124.77 301.13 122.96Q301 121.14 301.13 120.24Q301.25 119.33 301.13 118.88Q301 118.44 301.13 117.8Q301.25 117.16 301.13 116.41Q301 115.66 301.13 115.05Q301.25 114.44 301.13 107.5Q301 100.56 301.13 96.93Q301.25 93.3 301.13 90.77Q301 88.25 301.13 86.36Q301.25 84.47 301.13 83.87Q301 83.27 301.13 82.53Q301.25 81.8 301.13 79.27Q301 76.75 301.13 74.93Q301.25 73.11 321.44 73.06Q341.64 73.01 347.89 73.13Q354.14 73.25 354.17 78.73Q354.19 84.21 354.17 84.48Q354.14 84.75 353.82 84.95Q353.5 85.14 334.82 85.08Q316.14 85.02 315.68 85.33Q315.22 85.64 315.12 86.95Q315.02 88.26 315.04 92.13Q315.06 96 315.22 96.39Q315.39 96.78 330.57 96.95Q345.75 97.11 345.88 99.7Q346 102.28 345.88 105.59Q345.75 108.89 330.63 109Q315.5 109.11 315.33 109.36Q315.16 109.61 315.11 110.48Q315.05 111.35 315.08 116.43Q315.11 121.5 323.22 121.63Q331.33 121.75 341.95 121.63Q352.56 121.5 353.1 121.64Q353.63 121.77 353.8 122.23Q353.96 122.68 354.09 127.65Q354.23 132.63 354.08 133.18Q353.94 133.73 353.41 133.86ZM410.27 133.87Q405.38 134 398.86 133.88Q392.34 133.75 391.32 133.88Q390.3 134 389.27 133.88Q388.25 133.75 387.84 133.88Q387.44 134 386.48 133.75Q385.53 133.5 383.86 133.75Q382.2 134 376.21 133.87Q370.22 133.75 368.67 133.88Q367.13 134 366.6 133.86Q366.08 133.73 366.16 113.67Q366.25 93.62 366.12 83.9Q366 74.19 366.27 73.62Q366.55 73.06 367.13 72.9Q367.72 72.75 370.05 72.88Q372.38 73 375.61 72.88Q378.84 72.75 379.27 72.9Q379.7 73.04 379.95 73.36Q380.2 73.67 380.1 93.89Q380 114.11 380.16 117.79Q380.31 121.46 381.11 121.61Q381.91 121.75 398.09 121.5Q414.28 121.25 414.53 121.45Q414.78 121.64 415.02 124.48Q415.25 127.33 415.13 127.87Q415 128.41 415.13 128.94Q415.25 129.47 415.13 130.1Q415 130.73 415.09 132.23Q415.17 133.73 410.27 133.87ZM480.09 108.15Q479.89 108.75 477.7 110.82Q475.51 112.88 475.03 112.97Q474.55 113.06 474.16 113.47Q473.77 113.88 473.16 114.09Q472.55 114.29 472.25 114.61Q471.95 114.92 471.13 115.11Q470.32 115.29 469.98 115.61Q469.65 115.92 468.61 116.11Q467.57 116.29 467.08 116.63Q466.59 116.96 464.77 117.13Q462.96 117.29 462.48 117.59Q462 117.89 461.58 117.93Q461.16 117.96 454.36 118.1Q447.56 118.25 444.57 118.01Q441.58 117.77 441.22 118.21Q440.87 118.64 440.69 120.9Q440.5 123.16 440.63 123.8Q440.75 124.44 440.63 125.33Q440.5 126.23 440.57 129.87Q440.64 133.5 440.28 133.75Q439.92 134 437.17 133.75Q434.42 133.5 433.01 133.75Q431.59 134 430.9 133.87Q430.2 133.75 428.25 133.85Q426.3 133.94 426.16 129.12Q426.02 124.3 426.07 98.77Q426.11 73.25 427.11 73.13Q428.11 73 429.41 73.13Q430.72 73.25 434.7 73.13Q438.68 73.01 451.21 73.06Q463.75 73.11 464.8 73.53Q465.84 73.94 466.78 74.01Q467.72 74.08 468.03 74.39Q468.34 74.7 469.27 74.88Q470.19 75.06 470.9 75.51Q471.62 75.96 472.15 76.01Q472.69 76.06 473.11 76.49Q473.53 76.92 473.87 76.99Q474.21 77.06 475.09 77.67Q475.96 78.27 477.92 80.38Q479.88 82.49 479.97 82.97Q480.06 83.45 480.5 83.9Q480.95 84.35 481.12 85.02Q481.3 85.68 481.63 86.03Q481.95 86.38 482.12 87.16Q482.29 87.93 482.59 88.26Q482.89 88.58 483.41 90.96Q483.92 93.33 483.93 95.79Q483.94 98.25 483.62 99.19Q483.29 100.12 483.12 101.52Q482.94 102.92 482.62 103.26Q482.3 103.59 482.12 104.52Q481.94 105.44 481.12 106.5Q480.3 107.55 480.09 108.15ZM467.47 100.89Q468 100.06 468.47 99.03Q468.94 97.99 468.93 95.41Q468.92 92.84 468.5 92.14Q468.08 91.45 468 90.98Q467.92 90.52 467.06 89.52Q466.21 88.52 465.33 87.8Q464.45 87.08 464 87.01Q463.55 86.94 462.94 86.51Q462.33 86.08 461.34 86.01Q460.36 85.94 459.75 85.63Q459.14 85.31 457.91 85.16Q456.67 85 456.01 85.13Q455.34 85.25 453.45 85.13Q451.55 85 447.93 85.12Q444.32 85.25 443.24 85.13Q442.16 85 441.37 85.27Q440.58 85.54 440.67 86.98Q440.75 88.42 440.5 96.88Q440.25 105.33 440.4 105.64Q440.55 105.96 441.44 106.09Q442.34 106.21 447.68 106.22Q453.02 106.23 456.56 105.98Q460.09 105.73 460.6 105.4Q461.1 105.08 461.77 105.01Q462.43 104.94 462.99 104.51Q463.55 104.08 464 104.01Q464.45 103.94 465.7 102.83Q466.94 101.73 467.47 100.89ZM578.09 108.15Q577.89 108.75 575.7 110.82Q573.51 112.88 573.03 112.97Q572.55 113.06 572.16 113.47Q571.77 113.88 571.16 114.09Q570.55 114.29 570.25 114.61Q569.95 114.92 569.13 115.11Q568.32 115.29 567.98 115.61Q567.65 115.92 566.61 116.11Q565.57 116.29 565.08 116.63Q564.59 116.96 562.77 117.13Q560.96 117.29 560.48 117.59Q560 117.89 559.58 117.93Q559.16 117.96 552.36 118.1Q545.56 118.25 542.57 118.01Q539.58 117.77 539.22 118.21Q538.87 118.64 538.69 120.9Q538.5 123.16 538.63 123.8Q538.75 124.44 538.63 125.33Q538.5 126.23 538.57 129.87Q538.64 133.5 538.28 133.75Q537.92 134 535.17 133.75Q532.42 133.5 531.01 133.75Q529.59 134 528.9 133.87Q528.2 133.75 526.25 133.85Q524.3 133.94 524.16 129.12Q524.02 124.3 524.07 98.77Q524.11 73.25 525.11 73.13Q526.11 73 527.41 73.13Q528.72 73.25 532.7 73.13Q536.68 73.01 549.21 73.06Q561.75 73.11 562.8 73.53Q563.84 73.94 564.78 74.01Q565.72 74.08 566.03 74.39Q566.34 74.7 567.27 74.88Q568.19 75.06 568.9 75.51Q569.62 75.96 570.15 76.01Q570.69 76.06 571.11 76.49Q571.53 76.92 571.87 76.99Q572.21 77.06 573.09 77.67Q573.96 78.27 575.92 80.38Q577.88 82.49 577.97 82.97Q578.06 83.45 578.5 83.9Q578.95 84.35 579.12 85.02Q579.3 85.68 579.63 86.03Q579.95 86.38 580.12 87.16Q580.29 87.93 580.59 88.26Q580.89 88.58 581.41 90.96Q581.92 93.33 581.93 95.79Q581.94 98.25 581.62 99.19Q581.29 100.12 581.12 101.52Q580.94 102.92 580.62 103.26Q580.3 103.59 580.12 104.52Q579.94 105.44 579.12 106.5Q578.3 107.55 578.09 108.15ZM565.47 100.89Q566 100.06 566.47 99.03Q566.94 97.99 566.93 95.41Q566.92 92.84 566.5 92.14Q566.08 91.45 566 90.98Q565.92 90.52 565.06 89.52Q564.21 88.52 563.33 87.8Q562.45 87.08 562 87.01Q561.55 86.94 560.94 86.51Q560.33 86.08 559.34 86.01Q558.36 85.94 557.75 85.63Q557.14 85.31 555.91 85.16Q554.67 85 554.01 85.13Q553.34 85.25 551.45 85.13Q549.55 85 545.93 85.12Q542.32 85.25 541.24 85.13Q540.16 85 539.37 85.27Q538.58 85.54 538.67 86.98Q538.75 88.42 538.5 96.88Q538.25 105.33 538.4 105.64Q538.55 105.96 539.44 106.09Q540.34 106.21 545.68 106.22Q551.02 106.23 554.56 105.98Q558.09 105.73 558.6 105.4Q559.1 105.08 559.77 105.01Q560.43 104.94 560.99 104.51Q561.55 104.08 562 104.01Q562.45 103.94 563.7 102.83Q564.94 101.73 565.47 100.89ZM507.53 133.92Q507.02 134 506.49 133.96Q505.96 133.92 505.64 133.71Q505.31 133.5 503.83 133.63Q502.34 133.75 500.12 133.63Q497.9 133.51 497.07 133.75Q496.23 134 495.67 133.88Q495.11 133.75 495.07 106.34Q495.04 78.92 495.07 76.09Q495.11 73.25 495.25 73.17Q495.39 73.08 499.02 73.06Q502.66 73.05 503.62 73.27Q504.58 73.5 505.32 73.26Q506.06 73.02 507.47 73.14Q508.89 73.25 508.94 95.26Q508.99 117.27 508.87 124.29Q508.75 131.31 508.87 131.95Q509 132.59 508.52 133.21Q508.05 133.84 507.53 133.92Z"></path></svg>